<svg width="31" height="31" viewBox="0 0 31 31" fill="none" xmlns="http://www.w3.org/2000/svg">
<path fill-rule="evenodd" clip-rule="evenodd" d="M17.2157 1.1624C15.4409 0.50608 13.3683 0.890789 11.9426 2.31653L9.80467 4.45445C10.4421 5.4066 10.9493 6.51394 11.3507 7.71065C11.8843 9.30153 12.2424 11.0813 12.4717 12.9285C12.8974 10.2636 13.5332 7.67226 14.4711 5.46076C15.1826 3.7831 16.0814 2.29465 17.2157 1.1624ZM12.9345 29.4102C13.0256 24.9754 13.4766 18.9853 14.5713 13.5134C15.2019 10.3615 16.0421 7.40178 17.1392 5.01616C17.6497 3.90623 18.2089 2.9356 18.818 2.13101C18.8845 2.19076 18.9497 2.2526 19.0137 2.31653L28.6397 11.9426C30.5923 13.8952 30.5923 17.061 28.6397 19.0137L19.0137 28.6397C17.3653 30.2881 14.8523 30.5449 12.9345 29.4102ZM13.0266 16.4847L13.0165 16.5887C13.1847 15.4892 13.3754 14.3937 13.5907 13.3172C14.2293 10.1255 15.0884 7.08212 16.2307 4.59834C16.5771 3.84518 16.9524 3.13693 17.3596 2.48841C16.5962 3.4089 15.9451 4.54642 15.3917 5.8512C14.1078 8.87861 13.3972 12.7035 13.0266 16.4847ZM2.31653 19.0137C0.363913 17.061 0.36391 13.8952 2.31653 11.9426L8.35953 5.89958C8.54006 6.29203 8.71106 6.70813 8.8727 7.14619C9.70224 9.39425 10.2593 12.1486 10.6127 15.0654C11.1351 19.3765 11.2074 23.9979 11.0779 27.775L2.31653 19.0137ZM11.754 16.2959C11.6078 13.3496 11.212 10.4416 10.4026 8.02867C10.0842 7.07934 9.70604 6.21857 9.26087 5.46614C9.45741 5.8922 9.64041 6.33805 9.81087 6.8C10.6777 9.14915 11.2472 11.9882 11.6055 14.9452C11.6597 15.3927 11.7091 15.8433 11.754 16.2959Z" fill="#1F1F40"/>
</svg>
